<?xml version="1.0" encoding="iso-8859-1"?>
<!-- Generator: Adobe Illustrator 19.1.0, SVG Export Plug-In . SVG Version: 6.00 Build 0)  -->
<svg version="1.1" id="Capa_1" xmlns="http://www.w3.org/2000/svg" xmlns:xlink="http://www.w3.org/1999/xlink" x="0px" y="0px"
	 viewBox="0 0 117.891 117.891" style="enable-background:new 0 0 117.891 117.891;" xml:space="preserve">
<g>
	<path d="M36.195,67.641c-3.032,0-5.5-2.467-5.5-5.5s2.468-5.5,5.5-5.5s5.5,2.467,5.5,5.5S39.228,67.641,36.195,67.641z
		 M36.195,59.641c-1.379,0-2.5,1.122-2.5,2.5s1.121,2.5,2.5,2.5s2.5-1.122,2.5-2.5S37.574,59.641,36.195,59.641z"/>
	<path d="M49.07,92.641c-2.826,0-5.125-2.299-5.125-5.125s2.299-5.125,5.125-5.125s5.125,2.299,5.125,5.125
		S51.896,92.641,49.07,92.641z M49.07,85.391c-1.172,0-2.125,0.953-2.125,2.125s0.953,2.125,2.125,2.125s2.125-0.953,2.125-2.125
		S50.242,85.391,49.07,85.391z"/>
	<path d="M46.671,102.505c-3.246,0-5.985-1.811-7.312-3.206c-5.115-5.852-4.291-12.601,2.633-21.928
		c7.48-10.077,16.658-9.627,17.048-9.603c0.826,0.052,1.455,0.764,1.403,1.591c-0.052,0.824-0.755,1.444-1.585,1.404
		c-0.338-0.018-7.999-0.303-14.458,8.396c-7.531,10.146-5.808,14.705-2.824,18.119c0.117,0.12,4.058,4.102,8.538,1.114
		c1.561-1.041,2.676-1.835,3.571-2.473c2.327-1.658,3.198-2.279,5.386-2.279c0.828,0,1.5,0.671,1.5,1.5s-0.672,1.5-1.5,1.5
		c-1.199,0-1.398,0.122-3.645,1.722c-0.865,0.616-2.049,1.46-3.648,2.526C50.024,102.057,48.284,102.505,46.671,102.505z"/>
	<path d="M58.695,117.891c-13.73,0-26.206-4.121-35.129-11.604C13.838,98.127,8.695,86.492,8.695,72.641
		c0-14.37,5.131-29.039,14.078-40.245c9.591-12.014,22.349-18.63,35.922-18.63c0.828,0,1.5,0.671,1.5,1.5s-0.672,1.5-1.5,1.5
		c-27.698,0-47,29.447-47,55.875c0,29.186,23.605,42.25,47,42.25c0.828,0,1.5,0.671,1.5,1.5S59.523,117.891,58.695,117.891z"/>
	<path d="M20.07,39.391c-0.401,0-0.802-0.16-1.097-0.477C9.495,28.755,5.599,14.949,5.662,8.479
		C3.854,7.958,2.531,6.292,2.531,4.323C2.531,1.939,4.471,0,6.855,0c2,0,3.687,1.364,4.179,3.211
		C17.407,3.41,29.976,8.589,39.64,18.942c0.565,0.605,0.532,1.555-0.073,2.12c-0.604,0.564-1.553,0.533-2.12-0.073
		C27.396,10.221,14.166,5.667,9.865,6.252C9.364,6.32,8.871,6.134,8.541,5.76c-0.303-0.342-0.432-0.8-0.355-1.245
		C8.182,4.462,8.18,4.399,8.18,4.323C8.18,3.594,7.586,3,6.855,3S5.531,3.594,5.531,4.323c0,0.73,0.594,1.324,1.324,1.324
		c0.087,0,0.155,0.003,0.213,0.007c0.446-0.051,0.887,0.092,1.21,0.397c0.357,0.337,0.536,0.827,0.463,1.313
		C8.143,11.33,10.96,25.928,21.167,36.867c0.565,0.606,0.532,1.555-0.073,2.12C20.805,39.257,20.438,39.391,20.07,39.391z"/>
	<path d="M34.194,24.266c-0.355,0-0.713-0.126-0.999-0.382C20.462,12.5,7.927,13.622,7.806,13.633
		c-0.825,0.091-1.56-0.517-1.644-1.341c-0.084-0.824,0.517-1.56,1.341-1.643c0.566-0.058,13.98-1.26,27.692,10.999
		c0.617,0.552,0.67,1.5,0.118,2.118C35.018,24.097,34.606,24.266,34.194,24.266z"/>
	<path d="M81.695,67.641c-3.032,0-5.5-2.467-5.5-5.5s2.468-5.5,5.5-5.5s5.5,2.467,5.5,5.5S84.728,67.641,81.695,67.641z
		 M81.695,59.641c-1.379,0-2.5,1.122-2.5,2.5s1.121,2.5,2.5,2.5s2.5-1.122,2.5-2.5S83.074,59.641,81.695,59.641z"/>
	<path d="M68.82,92.641c-2.826,0-5.125-2.299-5.125-5.125s2.299-5.125,5.125-5.125s5.125,2.299,5.125,5.125
		S71.646,92.641,68.82,92.641z M68.82,85.391c-1.172,0-2.125,0.953-2.125,2.125s0.953,2.125,2.125,2.125s2.125-0.953,2.125-2.125
		S69.992,85.391,68.82,85.391z"/>
	<path d="M71.212,102.503c-1.613,0-3.349-0.448-5.099-1.615c-1.6-1.066-2.783-1.91-3.648-2.526
		c-2.246-1.601-2.445-1.722-3.645-1.722c-0.828,0-1.5-0.671-1.5-1.5s0.672-1.5,1.5-1.5c2.188,0,3.059,0.621,5.386,2.279
		c0.896,0.638,2.011,1.433,3.571,2.473c4.528,3.017,8.418-0.989,8.581-1.161c2.941-3.368,4.665-7.927-2.867-18.072
		c-6.524-8.79-14.371-8.405-14.452-8.397c-0.843,0.047-1.539-0.577-1.591-1.403c-0.052-0.827,0.577-1.539,1.403-1.591
		c0.389-0.027,9.567-0.475,17.048,9.603c6.925,9.326,7.749,16.074,2.676,21.881C77.218,100.68,74.465,102.503,71.212,102.503z"/>
	<path d="M59.195,117.891c-0.828,0-1.5-0.671-1.5-1.5s0.672-1.5,1.5-1.5c23.395,0,47-13.064,47-42.25
		c0-26.428-19.302-55.875-47-55.875c-0.828,0-1.5-0.671-1.5-1.5s0.672-1.5,1.5-1.5c13.573,0,26.331,6.616,35.922,18.63
		c8.947,11.206,14.078,25.875,14.078,40.245c0,13.852-5.143,25.486-14.87,33.646C85.402,113.77,72.927,117.891,59.195,117.891z"/>
	<path d="M97.82,39.391c-0.367,0-0.734-0.133-1.023-0.403c-0.605-0.565-0.639-1.515-0.073-2.12
		c10.211-10.941,13.026-25.538,12.426-29.502c-0.074-0.489,0.099-0.984,0.46-1.321c0.33-0.308,0.778-0.448,1.222-0.39
		c0.057-0.004,0.122-0.007,0.204-0.007c0.73,0,1.324-0.594,1.324-1.324c0-0.729-0.594-1.323-1.324-1.323
		c-0.729,0-1.322,0.594-1.322,1.323c0,0.091-0.003,0.163-0.008,0.222c0.053,0.432-0.079,0.882-0.372,1.206
		c-0.333,0.366-0.831,0.565-1.308,0.5c-4.279-0.583-17.527,3.967-27.579,14.737c-0.566,0.606-1.515,0.638-2.12,0.073
		c-0.605-0.565-0.639-1.515-0.073-2.12c9.665-10.354,22.234-15.534,28.605-15.731C107.353,1.362,109.038,0,111.035,0
		c2.385,0,4.324,1.939,4.324,4.323c0,1.97-1.325,3.637-3.131,4.156c0.065,6.47-3.83,20.275-13.312,30.435
		C98.621,39.23,98.222,39.391,97.82,39.391z"/>
	<path d="M83.696,24.266c-0.412,0-0.823-0.169-1.119-0.5c-0.552-0.618-0.499-1.566,0.118-2.118
		C96.406,9.39,109.821,10.593,110.39,10.648c0.824,0.083,1.425,0.819,1.341,1.643c-0.084,0.823-0.832,1.422-1.641,1.342
		c-0.201-0.018-12.757-1.049-25.395,10.25C84.409,24.14,84.052,24.266,83.696,24.266z"/>
</g>
<g>
</g>
<g>
</g>
<g>
</g>
<g>
</g>
<g>
</g>
<g>
</g>
<g>
</g>
<g>
</g>
<g>
</g>
<g>
</g>
<g>
</g>
<g>
</g>
<g>
</g>
<g>
</g>
<g>
</g>
</svg>
