<svg
      xmlns="http://www.w3.org/2000/svg"
      
      version="1.1"
      viewBox="0 0 22.578 22.578"
    >
      <g transform="translate(0 -274.422)">
        <path
      
          fill="#173156"
          strokeLinecap="round"
          strokeLinejoin="round"
          strokeWidth="1.258"
          d="M11.265 275.393a.333.333 0 00-.261.503c.22.366.258.635.234.885-.025.25-.128.494-.251.761-.124.268-.27.556-.31.907-.04.351.057.752.347 1.138a.333.333 0 00.53-.4c-.21-.28-.238-.461-.216-.662.023-.2.127-.43.253-.704.126-.274.272-.592.31-.976.037-.384-.047-.824-.327-1.29a.333.333 0 00-.309-.162zm4.925 1.833c-.775-.01-1.514.49-1.64 1.26l-.388 2.377a11.677 11.677 0 00-2.873-.35c-2.078 0-3.964.517-5.354 1.376-1.37 1.111-2.28 2.344-2.28 3.855.005 1.27.284 2.356.758 3.265-.69.676-1.112 1.495-1.112 2.38 0 1.349.962 2.521 2.41 3.336 1.449.815 3.413 1.305 5.578 1.305 2.165 0 4.13-.49 5.578-1.305 1.448-.815 2.41-1.987 2.41-3.336 0-.885-.422-1.702-1.112-2.378.473-.908.753-1.998.758-3.267 0-1.852-1.121-3.075-2.107-3.744l1-2.64c.327-.865-.284-1.83-1.195-2.075a1.748 1.748 0 00-.43-.06zm-6.535.649c-.123.267-.27.558-.31.909-.04.35.058.749.347 1.135.11.146.317.177.464.069a.333.333 0 00.067-.467c-.21-.28-.24-.463-.217-.663.023-.2.128-.43.254-.703a.333.333 0 00-.163-.443c-.22-.068-.356.01-.442.163zm2.664 0c-.124.267-.27.558-.31.909-.04.35.055.749.344 1.135a.333.333 0 10.533-.398c-.21-.28-.239-.463-.216-.663.022-.2.127-.43.253-.703a.333.333 0 00-.162-.443c-.204-.082-.356.014-.442.163zm3.872.019c.086-.001.173.01.258.032.543.146.902.776.742 1.199l-1.7 4.49a1.805 1.805 0 00-1.06-.281l.775-4.74c.061-.376.517-.697.985-.7zm-.13.282l-.032.001a.333.333 0 00-.202.582s.227.182.253.639a.333.333 0 10.664-.037c-.04-.697-.475-1.1-.475-1.1a.333.333 0 00-.208-.085zm-4.772 3.003c.982 0 1.918.123 2.765.343l-.126.773a13.984 13.984 0 00-2.64-.246c-2.067 0-3.942.426-5.329 1.138a5.833 5.833 0 00-1.326.91c.33-.613.895-1.173 1.653-1.642 1.261-.78 3.036-1.276 5.003-1.276zm5.285 1.46c.616.428 1.082.922 1.37 1.455-.413-.386-.937-.726-1.538-1.012zm-5.285.076c.893 0 1.746.086 2.53.238l-.09.555a2.04 2.04 0 00-1.098 1.323 2.07 2.07 0 00-.043.872l-.08.03a.333.333 0 00-.202.425.333.333 0 00.428.199l.548-.2a.747.747 0 01.509 0l.179.067c.31.112.652.112.963 0l.18-.066a.747.747 0 01.508 0l.548.199a.333.333 0 00.425-.2.333.333 0 00-.2-.424l-.067-.025a2.035 2.035 0 00-.314-1.588l.156-.412c1.175.569 1.906 1.316 2.074 2.092-.163.94-.855 1.81-1.951 2.488-1.261.779-3.037 1.278-5.003 1.278-1.967 0-3.742-.5-5.003-1.278-1.096-.678-1.789-1.547-1.95-2.488.158-.743.828-1.458 1.926-2.021 1.264-.649 3.05-1.064 5.027-1.064zm-.666 1a.333.333 0 00-.331.332c0 .547.45 1 .997 1 .547 0 .998-.453.998-1a.333.333 0 00-.667 0 .328.328 0 01-.331.334.33.33 0 01-.334-.334.333.333 0 00-.332-.332zm3.883.282c.102 0 .205.013.307.04.604.162.983.782.88 1.45a1.404 1.404 0 00-.807.047l-.181.063a.74.74 0 01-.507 0l-.181-.063a1.416 1.416 0 00-.787-.052c-.012-.16.002-.322.044-.48.164-.61.683-1.002 1.232-1.005zm-5.708.05a.335.335 0 00-.283.15l-.666.997a.333.333 0 00.094.462l.997.666c.153.103.36.06.462-.093l.666-.998a.333.333 0 00-.094-.462l-.997-.665a.333.333 0 00-.18-.056zm.088.796l.442.295-.294.445-.445-.298zm2.57.58a.335.335 0 00-.29.167l-.164.288a.333.333 0 00.574.334l.167-.29a.333.333 0 00-.288-.498zm-4.162.622a.333.333 0 000 .665h.334a.333.333 0 000-.665zm7.452.688l-.167.287a.333.333 0 10.577.334l.165-.29a.333.333 0 00-.12-.454c-.197-.093-.39 0-.455.123zm-6.452.975c0 .547.45 1 .997 1 .548 0 1-.453 1-1a.99.99 0 00-1-.99 1 1 0 00-.997.99zm3.661 0c0 .547.45 1 .998 1 .547 0 1-.453 1-1a.99.99 0 00-1-.99 1 1 0 00-.998.99zm-1.08-.62a.333.333 0 00-.124.455l.167.288a.333.333 0 10.575-.334l-.164-.288c-.142-.182-.303-.194-.455-.12zm-1.584.288c.188 0 .335.144.335.332a.33.33 0 01-.335.334.328.328 0 01-.331-.334c0-.188.143-.332.331-.332zm3.662 0c.187 0 .334.144.334.332a.33.33 0 01-.334.334.328.328 0 01-.332-.334c0-.188.144-.332.332-.332zm-8.351.374c.363.413.815.785 1.333 1.105 1.39.859 3.276 1.377 5.354 1.377 2.078 0 3.965-.518 5.354-1.377.518-.32.97-.692 1.333-1.104-.631 2.102-2.253 3.329-4.131 3.886a.333.333 0 00-.224.413.333.333 0 00.413.224c.115-.035.23-.072.345-.112l-.173.465a.626.626 0 01-.588.408H8.96a.625.625 0 01-.588-.408l-.172-.465c.114.04.229.077.345.112a.333.333 0 00.412-.224.333.333 0 00-.223-.413c-1.879-.557-3.501-1.784-4.132-3.887zm.163 1.85c.662.983 1.572 1.718 2.596 2.215l.387 1.046c.188.504.673.84 1.212.84h4.658c.538 0 1.024-.336 1.212-.84l.388-1.046c1.023-.497 1.932-1.232 2.594-2.213.524.553.8 1.156.8 1.787 0 1.03-.75 2.013-2.072 2.757-1.322.744-3.188 1.218-5.251 1.218-2.064 0-3.929-.474-5.251-1.218-1.322-.744-2.071-1.728-2.071-2.757 0-.631.274-1.235.798-1.789z"
          color="#000"
          display="inline"
          paintOrder="markers fill stroke"
        ></path>
      </g>
    </svg>