<svg
      xmlns="http://www.w3.org/2000/svg"
     
      version="1.1"
      viewBox="0 0 22.578 22.578"
    >
      <g transform="translate(0 -274.422)">
        <path
          
          fill="#173156"
          fillOpacity="1"
          fillRule="nonzero"
          stroke="none"
          strokeDasharray="none"
          strokeDashoffset="0"
          strokeLinecap="round"
          strokeLinejoin="round"
          strokeMiterlimit="1.5"
          strokeOpacity="1"
          strokeWidth="0.529"
          d="M7.013 275.392c-.626 0-1.14.515-1.14 1.14 0 .496.362.845.808 1v1.242a.589.589 0 00-.238.214.555.555 0 00-.057.384c.041.187.124.278.167.343-.652.435-1.156 1.195-1.501 2.074-.323.822-.534 1.658-.591 2.272a1.002 1.002 0 00-.826.98c0 .445.301.823.707.95l1.216 7.772v-.013c.05.425.35.768.74.895v.387c0 .548.45.998.997.998h7.987c.548 0 .998-.45.998-.998v-.387c.39-.127.689-.47.739-.895v.013l1.216-7.772c.406-.128.708-.505.708-.95a1 1 0 00-.89-.986c-.073-.834-.422-1.675-.953-2.35-.513-.652-1.21-1.153-2.011-1.284-.013-.056-.026-.111-.037-.167.08-.013.147-.01.267-.08a.538.538 0 00.246-.299.62.62 0 00-.034-.41l.847-.845c.425.205.927.213 1.277-.137a1.148 1.148 0 000-1.615 1.131 1.131 0 00-.81-.329 1.131 1.131 0 00-.33-.81 1.136 1.136 0 00-.805-.331c-.292 0-.585.11-.806.331-.35.35-.342.852-.137 1.277l-.88.88a.585.585 0 00-.319-.018.55.55 0 00-.31.231c-.098.154-.104.265-.12.344-.624-.128-1.32-.061-2.026.186-.685.24-1.346.58-1.87.918.114-.184.058-.385.03-.551a.617.617 0 00-.312-.266v-1.198c.446-.156.806-.504.806-1 0-.625-.514-1.14-1.14-1.14-.314 0-.599.13-.806.34a1.135 1.135 0 00-.807-.34zm8.696.665c.12 0 .241.047.335.141a.469.469 0 010 .67c-.314.315.158.787.472.472a.469.469 0 01.67 0 .47.47 0 010 .67.469.469 0 01-.67 0 .333.333 0 00-.472 0l-.893.894a7.795 7.795 0 00-.675-.664l.897-.9a.333.333 0 000-.472.469.469 0 010-.67.473.473 0 01.336-.14zm-8.223.475c0 .444.666.444.666 0a.47.47 0 01.474-.474.47.47 0 01.474.474.469.469 0 01-.474.474.333.333 0 00-.332.331v1.264a7.646 7.646 0 00-.947.006v-1.27a.333.333 0 00-.334-.331.47.47 0 01-.475-.474.47.47 0 01.475-.475.47.47 0 01.473.475zm6.301 2.046c.458.3.722.571 1.02 1.057-.257.041-.324.164-.433.316-.031.158.02.31.058.45-.872.084-1.632.607-2.18 1.304a4.676 4.676 0 00-.968 2.338c-.077-.623-.293-1.462-.624-2.286-.26-.65-.612-1.226-1.044-1.657a8.624 8.624 0 011.717-.841c.729-.256 1.45-.35 1.852-.212a.501.501 0 00.455-.123c.087-.103.1-.18.117-.245.016-.06.071-.101.03-.1m-5.198.748c-.019.031-.016.03-.041.07-.036.054-.085.11-.106.242a.416.416 0 00.041.253.42.42 0 00.192.177c.45.206 1.002 1.023 1.368 1.935.315.785.449 1.53.5 2.039H5.19a7.66 7.66 0 01.484-2.011c.356-.906.892-1.724 1.33-1.938a.504.504 0 00.234-.41c-.011-.135-.055-.198-.088-.256l-.054-.093c.538-.11.917-.106 1.493-.008m6.087 1.721c.716 0 1.395.422 1.904 1.069.435.552.726 1.26.802 1.925H11.97a3.942 3.942 0 01.804-1.925c.508-.647 1.185-1.069 1.901-1.069zm-10.041 3.66h13.307c.188 0 .334.144.334.332a.33.33 0 01-.334.334H4.635a.33.33 0 01-.334-.334c0-.188.146-.331.334-.331zm.39 1.332h12.53l-.365 2.328h-4.584l-.848-1.272a.574.574 0 00-.938 0l-.848 1.272H5.39zm6.264 1.552l1.528 2.292a.184.184 0 010 .206l-1.528 2.292-1.528-2.291a.184.184 0 010-.207zm-5.753 1.442H9.53l-.321.481a.851.851 0 000 .944l.159.238H5.753c-.095-.551-.151-1.108-.217-1.663zm7.513 0h3.992c-.058.556-.13 1.11-.216 1.663H13.21l.158-.238a.851.851 0 000-.944zm-7.192 2.328H9.81l1.01 1.516a.574.574 0 00.938 0l1.01-1.516h3.953l-.36 2.297-.002.013a.408.408 0 01-.409.363H6.627a.41.41 0 01-.41-.37zm1.106 3.339h8.65v.331a.328.328 0 01-.33.334H7.294a.328.328 0 01-.332-.334z"
          baselineShift="baseline"
          clipRule="nonzero"
          color="#000"
          colorInterpolation="sRGB"
          colorInterpolationFilters="linearRGB"
          colorRendering="auto"
          direction="ltr"
          display="inline"
          dominantBaseline="auto"
          enableBackground="accumulate"
          fontFamily="sans-serif"
          fontSize="medium"
          fontStretch="normal"
          fontStyle="normal"
          fontVariant="normal"
          fontWeight="normal"
          imageRendering="auto"
          letterSpacing="normal"
          opacity="1"
          overflow="visible"
          shapeRendering="auto"
          stopColor="#000"
          stopOpacity="1"
          textAnchor="start"
          textDecoration="none"
          textRendering="auto"
          vectorEffect="none"
          visibility="visible"
          wordSpacing="normal"
          writingMode="lr-tb"
        ></path>
      </g>
    </svg>