<svg
      xmlns="http://www.w3.org/2000/svg"
      
      version="1.1"
      viewBox="0 0 22.578 22.578"
    >
      <g transform="translate(0 -274.422)">
        <path
          
          fill="#173156"
          fillOpacity="1"
          fillRule="nonzero"
          stroke="none"
          strokeDasharray="none"
          strokeDashoffset="0"
          strokeLinecap="round"
          strokeLinejoin="round"
          strokeMiterlimit="1.5"
          strokeOpacity="1"
          strokeWidth="0.529"
          d="M8.216 278.51c-1.604 0-2.981 1.18-3.958 2.675-.977 1.496-1.58 3.336-1.58 4.863 0 1.424.599 2.356 1.517 2.87H1.971c-.548 0-1 .452-1 1v.666c0 .547.452.997 1 .997h1.07l.27 1.079c.037.148.17.253.323.253h1.998a.333.333 0 00.321-.253l.27-1.079h10.133l.27 1.079c.036.149.17.254.324.253h1.997a.333.333 0 00.321-.253l.27-1.079h1.072c.548 0 .998-.45.998-.997v-.667c0-.547-.45-1-.998-1h-2.382c.919-.513 1.518-1.445 1.518-2.87 0-1.526-.604-3.366-1.58-4.862-.978-1.496-2.354-2.676-3.959-2.676-1.131 0-2.154.6-2.997 1.467-.845-.873-1.86-1.467-2.994-1.467zm0 .665c1.27 0 2.494.985 3.401 2.373.907 1.389 1.47 3.153 1.47 4.5-.112 1.577-.89 2.362-2.186 2.653l.05-5.317a.997.997 0 00-.988-1l-1.002-.003a.333.333 0 00-.278.15l-.287.432-.118-.354a.333.333 0 00-.317-.228H6.575c-.545 0-.993.447-.997.992l-.043 5.328c-1.451-.292-2.177-1.641-2.191-2.654 0-1.347.562-3.111 1.469-4.5.907-1.388 2.133-2.373 3.403-2.373zm5.991 0c1.27 0 2.494.985 3.4 2.373.907 1.389 1.472 3.153 1.472 4.5-.112 1.576-.892 2.362-2.187 2.653l.05-5.317a.999.999 0 00-.993-1.002h-.663a.333.333 0 00-.283.157l-.268.427-.138-.366a.333.333 0 00-.312-.218h-1.442c-.196-.414-.42-.817-.668-1.197a8.709 8.709 0 00-.521-.71c.765-.8 1.645-1.3 2.553-1.3zm-6.246.757a.333.333 0 00-.332.332v.334a.333.333 0 00.666 0v-.334a.333.333 0 00-.334-.332zm1.331.666a.333.333 0 00-.331.331v.335a.333.333 0 00.666 0v-.335a.333.333 0 00-.335-.331zm4.662 0a.333.333 0 00-.334.331v.335a.333.333 0 00.665 0v-.335a.333.333 0 00-.331-.331zm1.332 0a.333.333 0 00-.334.331v.335a.333.333 0 00.665 0v-.335a.333.333 0 00-.331-.331zm-8.711 2.45h1.147l.256.771a.333.333 0 00.592.078l.568-.847h.825c.183 0 .324.143.322.327l-.051 5.396c-1.345.18-2.69.181-4.035 0l.044-5.394a.328.328 0 01.332-.331zm6.554 0h.926l.292.783c.097.259.45.294.595.06l.525-.844h.482c.186 0 .329.144.327.33l-.051 5.395c-1.264.17-2.527.18-3.79.03.806-.533 1.317-1.434 1.317-2.754 0-.933-.226-1.984-.623-3zm-8.495.877a.333.333 0 00-.335.334v.331a.333.333 0 10.667 0v-.331a.333.333 0 00-.332-.334zm13.313.665a.333.333 0 00-.332.334v.333a.333.333 0 10.666 0v-.333a.333.333 0 00-.334-.334zm-10.652.035a.333.333 0 00-.331.334v2.961a.333.333 0 00.665 0v-2.961a.333.333 0 00-.334-.334zm1.666.3a.333.333 0 00-.334.332v1.331a.333.333 0 10.665 0v-1.331a.333.333 0 00-.331-.332zm2.996.332a.333.333 0 00-.335.334v.331a.333.333 0 10.666 0v-.331a.333.333 0 00-.331-.334zm2.995.123a.333.333 0 00-.332.331v1.211a.333.333 0 00.666 0v-1.21a.333.333 0 00-.334-.332zm-10.318.542a.333.333 0 00-.335.335v.331a.333.333 0 10.667 0v-.331a.333.333 0 00-.332-.335zm-2.663 3.661h18.64c.19 0 .33.144.33.334v.667c0 .19-.14.331-.33.331H1.97a.326.326 0 01-.335-.331v-.667c0-.19.145-.334.335-.334zm1.756 1.998h1.81l-.166.666H3.894zm13.315 0h1.812l-.167.666H17.21z"
          baselineShift="baseline"
          clipRule="nonzero"
          color="#000"
          colorInterpolation="sRGB"
          colorInterpolationFilters="linearRGB"
          colorRendering="auto"
          direction="ltr"
          display="inline"
          dominantBaseline="auto"
          enableBackground="accumulate"
          fontFamily="sans-serif"
          fontSize="medium"
          fontStretch="normal"
          fontStyle="normal"
          fontVariant="normal"
          fontWeight="normal"
          imageRendering="auto"
          letterSpacing="normal"
          opacity="1"
          overflow="visible"
          shapeRendering="auto"
          stopColor="#000"
          stopOpacity="1"
          textAnchor="start"
          textDecoration="none"
          textRendering="auto"
          vectorEffect="none"
          visibility="visible"
          wordSpacing="normal"
          writingMode="lr-tb"
        ></path>
      </g>
    </svg>