<?xml version="1.0" ?><svg viewBox="0 0 64 64" xmlns="http://www.w3.org/2000/svg"><g id="outling-cut"><path d="M38.439,11.83a.782.782,0,0,0,.181.09.636.636,0,0,0,.18.06A1.355,1.355,0,0,0,39,12a1,1,0,0,0,.38-.08,1.169,1.169,0,0,0,.33-.21A1.052,1.052,0,0,0,40,11a1,1,0,0,0-.08-.38,1.032,1.032,0,0,0-.21-.33,1.169,1.169,0,0,0-.33-.21.956.956,0,0,0-.58-.06.636.636,0,0,0-.18.06.782.782,0,0,0-.181.09,1.7,1.7,0,0,0-.149.12,1.032,1.032,0,0,0-.21.33A1,1,0,0,0,38,11a1.047,1.047,0,0,0,.29.71Z"/><path d="M38.439,15.83a.782.782,0,0,0,.181.09.636.636,0,0,0,.18.06A1.355,1.355,0,0,0,39,16a1,1,0,0,0,.38-.08,1.169,1.169,0,0,0,.33-.21,1.014,1.014,0,0,0,0-1.42,1.169,1.169,0,0,0-.33-.21.956.956,0,0,0-.58-.06.636.636,0,0,0-.18.06.782.782,0,0,0-.181.09l-.149.12a1.014,1.014,0,0,0,0,1.42A1.7,1.7,0,0,0,38.439,15.83Z"/><rect height="2" width="3" x="12" y="48"/><rect height="2" width="3" x="12" y="52"/><rect height="2" width="3" x="12" y="56"/><rect height="2" width="3" x="19" y="48"/><rect height="2" width="3" x="19" y="52"/><rect height="2" width="3" x="19" y="56"/><rect height="2" width="3" x="26" y="56"/><rect height="2" width="3" x="35" y="56"/><rect height="2" width="3" x="42" y="48"/><rect height="2" width="3" x="42" y="52"/><rect height="2" width="3" x="42" y="56"/><rect height="2" width="3" x="49" y="52"/><rect height="2" width="3" x="49" y="56"/><path d="M16.29,33.29a1,1,0,1,0,1.42,0A1.047,1.047,0,0,0,16.29,33.29Z"/><path d="M16.29,25.29a1.155,1.155,0,0,0-.21.33A.838.838,0,0,0,16,26a1,1,0,1,0,2,0,1,1,0,0,0-.08-.38,1.155,1.155,0,0,0-.21-.33A1.047,1.047,0,0,0,16.29,25.29Z"/><path d="M21.62,29.08a1.032,1.032,0,0,0-.33.21,1.014,1.014,0,0,0,0,1.42,1.032,1.032,0,0,0,.33.21A1,1,0,0,0,22,31a1.2,1.2,0,0,0,.189-.02.609.609,0,0,0,.191-.06.568.568,0,0,0,.17-.09,1,1,0,0,0,.16-.12.933.933,0,0,0,.21-.33.943.943,0,0,0,0-.76.933.933,0,0,0-.21-.33,1,1,0,0,0-.16-.12.568.568,0,0,0-.17-.09.609.609,0,0,0-.191-.06A.93.93,0,0,0,21.62,29.08Z"/><path d="M23.71,25.29a1.712,1.712,0,0,0-.15-.12.776.776,0,0,0-.18-.09.609.609,0,0,0-.191-.06,1.054,1.054,0,0,0-.9.27,1.014,1.014,0,0,0,0,1.42.933.933,0,0,0,.33.21A1,1,0,0,0,23,27a1.2,1.2,0,0,0,.189-.02.609.609,0,0,0,.191-.06.776.776,0,0,0,.18-.09,1.712,1.712,0,0,0,.15-.12,1.014,1.014,0,0,0,0-1.42Z"/><path d="M22.62,33.08a.933.933,0,0,0-.33.21,1.014,1.014,0,0,0,0,1.42.933.933,0,0,0,.33.21A1,1,0,0,0,23,35a1.2,1.2,0,0,0,.189-.02.609.609,0,0,0,.191-.06.776.776,0,0,0,.18-.09,1.712,1.712,0,0,0,.15-.12,1.014,1.014,0,0,0,0-1.42A1.021,1.021,0,0,0,22.62,33.08Z"/><path d="M11,62H36.879a1,1,0,0,0,0-2H11a3,3,0,0,1-3-3V44.974A4.948,4.948,0,0,0,11,46H28v2H26v2h2v1a3.939,3.939,0,0,0,.142,1H26v2h3v-.382a3.947,3.947,0,0,0,6,0V54h3V52H35.858A3.939,3.939,0,0,0,36,51V50h2V48H36V46H46.927l2.428,2H49v2h2.784L56,53.472V57a3,3,0,0,1-3,3H42.09a1,1,0,0,0,0,2H53a5.006,5.006,0,0,0,5-5V30.047l.913-3a1,1,0,0,0-.074-.762l-2.465-4.627,2.167-7.109.956.292a1.007,1.007,0,0,0,.292.043,1,1,0,0,0,.957-.708l1.211-3.974a1,1,0,0,0-.665-1.248L56.509,7.5,53.64,6.626h0l-1.912-.583a1,1,0,0,0-1.249.665l-1.211,3.974a1,1,0,0,0,.665,1.248l.956.291L48.722,19.33,46,20.781V9.5a7.5,7.5,0,0,0-15,0V10a1,1,0,0,0,0,2v2a1,1,0,0,0,0,2v4H20.5a1,1,0,0,0,0,2H31v3H27a1,1,0,0,0,0,2h4v1.14a8.177,8.177,0,0,0-.411.86H26a1,1,0,0,0,0,2h4.071a7.924,7.924,0,0,0-.012,2H27a1,1,0,0,0,0,2h3.592a8.1,8.1,0,0,0,.468.978l.014.022H31v2H11a3,3,0,0,1-3-3h5a1,1,0,0,0,0-2H8V31H18a1,1,0,0,0,0-2H8V27h5a1,1,0,0,0,0-2H8a3,3,0,0,1,3-3h5a1,1,0,0,0,0-2H11a5.006,5.006,0,0,0-5,5V57A5.006,5.006,0,0,0,11,62ZM36,44V40h1.961l.052,0,.052,0h1.576L44.5,44Zm17.484-6H49.3l1.537-5.045,3.826,1.166Zm-5.541,2H56V50.881L42.787,40ZM56,38h-.424L56,36.609ZM54.013,8.831l1.913.583L57.839,10l-.628,2.06-3.826-1.167ZM50.027,20.9a1,1,0,0,0,.488-.59l2.287-7.5,3.826,1.166-2.288,7.5a1.006,1.006,0,0,0,.074.762l2.465,4.627L55.25,32.208,50.468,30.75a.993.993,0,0,0-.763.074,1.006,1.006,0,0,0-.486.591L47.212,38H43.289a7.955,7.955,0,0,0,2.39-3.757,1,1,0,0,0-1.92-.56A6.009,6.009,0,0,1,38.191,38h-.042a6.045,6.045,0,0,1-1.72-.209,6,6,0,0,1,1.212-11.777,6.635,6.635,0,0,0-.282,1.16.981.981,0,0,0-.977-.009,1,1,0,0,0-.371,1.364,2.978,2.978,0,0,0,1.817,1.4,3.019,3.019,0,0,0,.791.106,2.982,2.982,0,0,0,1.486-.4,1,1,0,0,0,.371-1.366.988.988,0,0,0-1.191-.428,4.606,4.606,0,0,1,.408-1.592,5.981,5.981,0,0,1,3.986,3.805,1,1,0,0,0,1.892-.646,7.756,7.756,0,0,0-1.294-2.361L45.4,23.366ZM35,14H33V12h2a1,1,0,0,0,0-2H33V9.5a5.5,5.5,0,0,1,11,0V21.873a1,1,0,0,0-.393.514L42.658,25.5A7.934,7.934,0,0,0,41,24.589a4.59,4.59,0,0,1,.588-.408,1,1,0,0,0-.994-1.735,6.623,6.623,0,0,0-1.864,1.592,7.926,7.926,0,0,0-4.707,1.021A8.2,8.2,0,0,0,33,25.765V16h2a1,1,0,0,0,0-2ZM32,40h2V51a2,2,0,0,1-4,0V40ZM11,40H28v4H11a3,3,0,0,1-3-3V38.974A4.948,4.948,0,0,0,11,40Z"/></g></svg>