<svg
      xmlns="http://www.w3.org/2000/svg"
    
      version="1.1"
      viewBox="0 0 30.484 21.621"
    >
      <defs>
        <clipPath clipPathUnits="userSpaceOnUse">
          <path d="M0 500h500V0H0z"></path>
        </clipPath>
        <clipPath clipPathUnits="userSpaceOnUse">
          <path d="M0 500h500V0H0z"></path>
        </clipPath>
        <clipPath clipPathUnits="userSpaceOnUse">
          <path d="M0 500h500V0H0z"></path>
        </clipPath>
        <clipPath clipPathUnits="userSpaceOnUse">
          <path d="M0 500h500V0H0z"></path>
        </clipPath>
        <clipPath clipPathUnits="userSpaceOnUse">
          <path d="M0 500h500V0H0z"></path>
        </clipPath>
        <clipPath clipPathUnits="userSpaceOnUse">
          <path d="M0 500h500V0H0z"></path>
        </clipPath>
        <clipPath clipPathUnits="userSpaceOnUse">
          <path d="M0 500h500V0H0z"></path>
        </clipPath>
        <clipPath clipPathUnits="userSpaceOnUse">
          <path d="M0 500h500V0H0z"></path>
        </clipPath>
        <clipPath clipPathUnits="userSpaceOnUse">
          <path d="M0 500h500V0H0z"></path>
        </clipPath>
        <clipPath clipPathUnits="userSpaceOnUse">
          <path d="M0 500h500V0H0z"></path>
        </clipPath>
        <clipPath id="clipPath292" clipPathUnits="userSpaceOnUse">
          <path d="M0 500h500V0H0z"></path>
        </clipPath>
      </defs>
      <g transform="translate(-83.918 -85.89)">
        <g fill="#000" transform="matrix(.35278 0 0 -.35278 -3.738 189.367)">
          <g fill="#000" clipPath="url(#clipPath292)">
            <g transform="translate(315.673 282.336)">
              <path
                fill="#000"
                fillOpacity="1"
                fillRule="nonzero"
                stroke="none"
                d="M0 0a1.469 1.469 0 110-2.938A1.469 1.469 0 010 0"
              ></path>
            </g>
            <g transform="translate(327.793 278.14)">
              <path
                fill="#000"
                fillOpacity="1"
                fillRule="nonzero"
                stroke="none"
                d="M0 0l-1.501 3.83a6.761 6.761 0 011.9.888L2.191.594zm-5.618-7.687c-1.079-.855-2.274-1.755-3.475-2.661-3.724-2.808-7.242-5.461-8.245-7.323-.329-.611-.863-1.331-1.43-2.094-1.518-2.045-3.408-4.591-3.269-7.519.044-.919-.028-1.843-.098-2.738-.21-2.698-.427-5.489 2.458-8.23 1.818-1.727 2.523-2.872 2.799-3.494h-4.261c-1.357 1.698-8.599 11.244-7.211 19.966l.036.221c1.105 1.499 2.588 3.943 2.458 6.142l-1.498-.089c.154-2.578-2.757-5.944-3.163-6.398-2.784-2.321-11.387-8.832-18.03-6.756-6.341 1.982-9.167 3.66-10.124 4.321.422 1.099 1.187 3.617.545 6.142l-1.453-.369c.6-2.359-.319-4.833-.603-5.511l-.091-.208c-1.335-3.027-3.079-5.809-3.731-5.954-1.737-.386-2.893-1.08-2.893-3.215 0-.93.556-2.293 1.26-4.017.55-1.347 1.16-2.843 1.552-4.275h-3.48l-.107-.007c-.012 0-1.337-.166-2.104.53-.43.391-.628 1.025-.587 1.883l.083 1.63c.181 3.474.369 7.067-.125 8.569-.382 1.16 1.434 4.915 2.946 6.089 1.526 1.187.327 3.54-.834 5.814-.51.999-1.036 2.032-1.202 2.749-.502 2.174-1.835 7.948 7.431 13.003 5.871 3.202 8.431 1.751 10.91.347 1.489-.843 3.029-1.716 5.12-1.499l1.183.117c5.616.546 17.016 1.669 22.508 7.009.015-.128.028-.257.046-.385.292-1.984 1.324-3.522 2.693-4.014.313-.112.63-.168.946-.168.74 0 1.472.305 2.128.898l.158.202c.059.109 1.426 2.688 1.329 4.821-.061 1.341-1.701 2.786-3.22 3.847.256.442.42.792.518 1.068.994-.424 3.229-2.259 4.632-3.412 2.156-1.771 6.295-4.113 10.11-3.793l1.735-4.428c-.746-.682-2.331-1.788-4.592-1.532l-.17-1.49a7.36 7.36 0 01.85-.049 7.04 7.04 0 013.363.853c-.679-1.338-1.842-3.042-3.801-4.593m-25.245-29.377c.536-1.57.926-2.598 1.202-3.264h-1.605c-1.148.746-2.792 2.184-2.792 3.24 0 1.688.848 9.653 1.037 11.399a45.262 45.262 0 013.005 2.242c-.075-1.992.218-3.972.713-5.874-.7-1.014-2.717-4.354-1.56-7.743m-26.464 4.914l-.021-.167c-.002-.144-.023-3.569 1.651-5.264a3.133 3.133 0 012.302-.958c1.174 0 2.35-1.418 2.851-2.321h-5.565c-.832 0-1.526.313-2.121.954-2.628 2.833-2.301 10.581-2.227 11.866.45.807.853 1.622 1.173 2.304a21.67 21.67 0 012.308-1.288c.092-.762.231-2.715-.351-5.126m36.798 41.517c2.02-1.2 3.95-2.767 3.988-3.593.067-1.495-.847-3.435-1.094-3.928-.487-.401-.976-.52-1.463-.345-.834.299-1.506 1.406-1.714 2.82-.277 1.879.04 3.903.283 5.046M-72.204-3.212c.244.526.6.846.978.876a.536.536 0 00.055.003c.169 0 .317-.066.392-.177.123-.181.022-.447-.048-.59-.203-.408-.857-.706-1.604-.811.029.186.095.415.227.699M.193 6.463c-3.834-3.499-10.217.287-12.354 2.041-3.451 2.835-4.864 3.842-5.916 3.842l-.105.002-.04.001c-.6 0-.841-.407-.866-.794-.014-.213-.169-.578-.433-1.045-.513.311-.934.543-1.149.658l-.81.434-.262-.882a19.073 19.073 0 01-.659-4.095l-.342-.404C-27.496.675-39.315-.475-44.996-1.028l-1.192-.118c-1.626-.166-2.826.519-4.227 1.313-2.569 1.455-5.768 3.264-12.368-.337-3.174-1.731-5.213-3.579-6.505-5.371-.595.011-1.423.101-2.089.336.837.266 1.55.745 1.894 1.44.367.74.347 1.505-.055 2.097-.385.569-1.071.887-1.809.827-.931-.075-1.74-.709-2.218-1.74a3.889 3.889 0 01-.365-1.258l-.049.013c-1.074.304-1.019.914-1 1.115l-1.495.135c-.116-1.284.664-2.292 2.088-2.694.263-.074.542-.125.829-.153.718-1.078 2.255-1.441 3.378-1.562-1.79-3.436-1.092-6.482-.777-7.842.206-.896.751-1.963 1.327-3.092.672-1.318 1.797-3.523 1.249-3.949-1.713-1.33-4.108-5.743-3.45-7.742.406-1.235.21-4.999.052-8.022l-.083-1.637c-.064-1.326.298-2.357 1.076-3.064.884-.804 2.07-.938 2.762-.938.235 0 .414.016.502.025h5.307l-.184.901c-.374 1.827-1.159 3.747-1.85 5.441-.591 1.447-1.149 2.815-1.149 3.45 0 1.044.237 1.422 1.718 1.75.536.12 1.109.62 1.668 1.305.03-3.111.448-8.119 2.68-10.525.854-.923 1.898-1.405 3.102-1.435l6.572-.001.486.042.223.335.152.309v.226c0 1.08-2.069 4.409-4.599 4.409-.49 0-.893.167-1.234.511-.991 1.002-1.214 3.234-1.219 4.113a16.87 16.87 0 01.439 4.669c1.603-.698 3.698-1.497 6.415-2.345 4.802-1.5 10.277.836 14.351 3.347-.304-2.881-.915-8.834-.915-10.344 0-2.304 3.306-4.398 3.682-4.629l.181-.111h3.21l1.334.014-.704 1.144c-.018.028-.442.734-1.588 4.09-.672 1.969.06 4.019.729 5.314 2.19-6.385 6.387-11.409 6.648-11.715l.224-.265h6.459l.142.569c.108.431.181 2.106-3.403 5.512-2.367 2.249-2.195 4.463-1.996 7.027.074.94.15 1.913.101 2.926-.113 2.392 1.527 4.603 2.976 6.553.599.808 1.166 1.57 1.545 2.277.848 1.573 4.557 4.369 7.829 6.837 1.21.913 2.414 1.82 3.502 2.682C-1.072-6.001.111-2.662.44-1.435L4.258-.4.969 7.171z"
              ></path>
            </g>
            <g transform="translate(268.927 274.55)">
              <path
                fill="#000"
                fillOpacity="1"
                fillRule="nonzero"
                stroke="none"
                d="M0 0l-.51-.199.531-1.404.53.208c.646.255 1.848.73 2.252.821L2.477.89C1.997.783 1.031.408 0 0"
              ></path>
            </g>
            <g transform="translate(261.499 268.066)">
              <path
                fill="#000"
                fillOpacity="1"
                fillRule="nonzero"
                stroke="none"
                d="M0 0l1.379-.589c.013.029 1.258 2.881 4.475 4.719l-.745 1.303C1.46 3.347.058.136 0 0"
              ></path>
            </g>
            <g transform="translate(284.294 253.616)">
              <path
                fill="#000"
                fillOpacity="1"
                fillRule="nonzero"
                stroke="none"
                d="M0 0l.359-1.457c1.437.355 2.823.843 4.12 1.447l-.633 1.36A21.086 21.086 0 000 0"
              ></path>
            </g>
            <g transform="translate(289.822 255.852)">
              <path
                fill="#000"
                fillOpacity="1"
                fillRule="nonzero"
                stroke="none"
                d="M0 0l.762-1.293c4.873 2.873 6.827 6.65 6.908 6.81l-1.338.678C6.314 6.16 4.499 2.651 0 0"
              ></path>
            </g>
          </g>
        </g>
      </g>
    </svg>