<svg
      xmlns="http://www.w3.org/2000/svg"

      version="1.1"
      viewBox="0 0 64 64"
      xmlSpace="preserve"
    >
      <g fill="#173156">
        <path d="M53.273 37.816a3.134 3.134 0 00-1.614-.771C49.301 28.387 41.403 22.019 32 22.017c-9.403.002-17.303 6.371-19.659 15.029-.616.106-1.177.365-1.614.771-.592.542-.92 1.333-.915 2.154 0 .391.069.788.202 1.182l4.848 14.327c.352 1.026 1.063 1.877 1.924 2.499.865.618 1.899 1.019 2.984 1.022h24.46c1.085-.004 2.119-.405 2.984-1.022.861-.622 1.572-1.473 1.924-2.499l4.848-14.327c.133-.394.202-.791.202-1.182.005-.821-.323-1.613-.915-2.155zM32 24.017c8.27-.002 15.256 5.464 17.57 12.973H14.43c2.314-7.509 9.3-12.975 17.57-12.973zm20.092 16.494l-4.848 14.327c-.177.537-.621 1.106-1.195 1.515-.57.413-1.253.651-1.818.647H19.77c-.565.004-1.248-.234-1.818-.647-.574-.408-1.019-.978-1.195-1.515l-4.848-14.327a1.713 1.713 0 01-.097-.541c.005-.325.104-.523.273-.686.172-.158.454-.292.915-.295h38c.461.002.743.137.915.295.169.162.269.361.273.686 0 .154-.027.335-.096.541z"></path>
        <path d="M22.305 32.83h.881a1 1 0 100-2h-.881a1 1 0 100 2zM28.475 28.424h.882a1 1 0 100-2h-.882a1 1 0 100 2zM43.458 34.593h.881a1 1 0 100-2h-.881a1 1 0 100 2zM32 35.475h.881a1 1 0 100-2H32a1 1 0 100 2zM37.288 30.187h.881a1 1 0 100-2h-.881a1 1 0 100 2zM20.819 20.876a1.001 1.001 0 001.362-1.465 3.957 3.957 0 01-.559-.715c-.251-.408-.459-.925-.456-1.441.001-.278.053-.563.199-.883.147-.319.396-.676.814-1.066.581-.539 1-1.11 1.269-1.694a4.07 4.07 0 00.384-1.722c-.004-1.101-.432-1.991-.826-2.606-.4-.617-.786-.978-.826-1.016a1 1 0 00-1.362 1.465c.033.031.311.31.559.716.251.407.459.925.456 1.442a2.087 2.087 0 01-.199.884c-.147.319-.396.676-.814 1.066-.581.539-1 1.11-1.269 1.693a4.07 4.07 0 00-.384 1.722c.003 1.101.432 1.991.826 2.606.401.616.786.975.826 1.014zM41.819 20.876a1.001 1.001 0 001.362-1.465 3.957 3.957 0 01-.559-.715c-.251-.408-.459-.925-.456-1.441.001-.278.053-.563.199-.883.147-.319.396-.676.814-1.066.581-.539 1-1.11 1.269-1.694a4.07 4.07 0 00.384-1.722c-.004-1.101-.432-1.991-.826-2.606-.4-.617-.786-.978-.826-1.016a1 1 0 00-1.362 1.465c.033.031.311.31.559.716.251.407.459.925.456 1.442a2.087 2.087 0 01-.199.884c-.147.319-.396.676-.814 1.066-.581.539-1 1.11-1.269 1.693a4.07 4.07 0 00-.384 1.722c.003 1.101.432 1.991.826 2.606.401.616.786.975.826 1.014zM31.319 17.876a1.001 1.001 0 001.362-1.465 3.957 3.957 0 01-.559-.715c-.251-.408-.459-.925-.456-1.442.001-.278.053-.563.199-.883.147-.319.396-.676.814-1.066.581-.539 1-1.11 1.269-1.694a4.07 4.07 0 00.384-1.722c-.004-1.101-.432-1.991-.826-2.606-.4-.617-.786-.977-.826-1.016a1.001 1.001 0 00-1.362 1.465c.033.031.311.31.559.715.251.408.459.925.456 1.442a2.087 2.087 0 01-.199.884c-.147.319-.396.676-.814 1.066-.581.539-1 1.11-1.269 1.693a4.07 4.07 0 00-.384 1.722c.003 1.101.432 1.991.826 2.606.401.617.786.977.826 1.016zM16.939 42.658a.999.999 0 10-1.879.684l4 11a.999.999 0 101.879-.684l-4-11z"></path>
      </g>
    </svg>