<svg
      xmlns="http://www.w3.org/2000/svg"
     
      version="1.1"
      viewBox="0 0 22.578 22.578"
    >
      <g transform="translate(0 -274.422)">
        <path
          
          fill="#173156"
          fillOpacity="1"
          fillRule="nonzero"
          stroke="none"
          strokeDasharray="none"
          strokeDashoffset="0"
          strokeLinecap="round"
          strokeLinejoin="round"
          strokeMiterlimit="1.5"
          strokeOpacity="1"
          strokeWidth="0.529"
          d="M3.45 279.09c-1.537 1.226-2.633 3.24-2.453 5.242H.979c.03 1.232-.078 2.506.078 3.798l.003.012c.302 1.9 2.064 3.118 3.823 3.377 1.514.316 2.941-.162 4.193.288.947.224 1.63 1.03 2.58 1.625 2.668 1.575 6.325.954 8.313-1.425 1.248-1.39 1.73-3.27 1.625-5.064l.001-2.447a6.094 6.094 0 00-.022-.67c-.116-2.359-1.845-4.271-3.873-5.203-2.173-1.001-4.567-1.465-6.944-1.5-.34-.004-.678 0-1.023.014-2.138.16-4.503.454-6.284 1.954zm6.321-1.29a19.5 19.5 0 01.983-.01c2.294.034 4.596.482 6.668 1.437 1.846.848 3.389 2.584 3.488 4.635l.003.015c.014.15.02.299.02.449h-.003v.194c-.068 2.513-1.897 4.912-4.342 5.562-.002 0-.003 0-.005.003-1.932.555-4.196.075-5.637-1.356-1.345-1.086-3.08-1.27-4.662-1.077-.866.011-1.799-.147-2.588-.513-.792-.367-1.433-.932-1.775-1.753-.81-2.045.268-4.443 1.953-5.783 1.591-1.34 3.792-1.644 5.897-1.801zm.192.872a.334.334 0 00-.265.126l-1.824 2.278-1.063-.688a.332.332 0 00-.36.56l1.005.65-.85 1.063-1.456-.943a.333.333 0 00-.362.56l1.4.905-1.812 2.264a.333.333 0 10.52.417l1.853-2.317 1.542.998-1.254 1.567a.333.333 0 10.517.417l1.298-1.621 1.465.947a.333.333 0 00.564.34l1.257-1.57a.332.332 0 00.406-.508l.86-1.075.363.233a.333.333 0 00.359-.56l-.304-.195 1.05-1.312a.333.333 0 00-.52-.415l-1.093 1.366-1.458-.938 1.075-1.343a.333.333 0 00-.52-.415l-1.117 1.396-1.546-.994.522-.652a.333.333 0 00-.252-.54zm-2.466.642c-.469-.02-.403.756.054.66.395-.06.346-.664-.054-.66zm8.887.638c-.469-.02-.403.755.054.66.395-.06.346-.664-.054-.66zm-7.108.436l1.545.994-.843 1.054-1.543-.997zm9.539 1.198c-.469-.02-.403.755.054.66.395-.06.346-.664-.054-.66zm-7.431.157l1.458.937-.849 1.06-1.454-.94zm-3.367.219l1.542.997-.85 1.063-1.542-.998zm-4.466.142c-.468-.02-.403.756.054.66.396-.06.347-.664-.054-.66zm13.015.562a1.595 1.595 0 00-.386.059c-1.305.296-1.669 2.136-.579 2.911 1.032.852 2.717.021 2.66-1.318.012-.94-.801-1.678-1.695-1.652zm-6.446.656l1.455.941-.85 1.063-1.455-.941zm7.484.996a.33.33 0 000 .025c.039.763-1.009 1.28-1.604.775-.644-.444-.417-1.591.455-1.772.653-.031 1.162.425 1.149.972zm2.167-.5c-.468-.02-.403.755.054.66.396-.06.347-.665-.054-.66zm-1.036 2.112c-.469-.02-.403.756.054.66.395-.06.346-.664-.054-.66zm-8.232 3.292c1.608 1.6 4.098 2.121 6.257 1.503 1.844-.49 3.355-1.835 4.174-3.517.043 1.582-.407 3.186-1.465 4.361-1.766 2.123-5.102 2.692-7.472 1.293-.814-.513-1.557-1.404-2.739-1.688-1.505-.533-2.982-.036-4.267-.31-1.534-.224-3.028-1.287-3.273-2.827-.07-.581-.081-1.174-.079-1.775.443.667 1.074 1.154 1.777 1.48.906.42 1.933.588 2.906.573 1.498-.184 3.049-.005 4.181.907zm6.85-2.876a.332.332 0 00-.335.267l-.19.983a4.94 4.94 0 01-1.373.254l.318-.412a.332.332 0 00-.26-.535.332.332 0 00-.265.13l-.595.77a3.19 3.19 0 01-1.63-.775.333.333 0 00-.25-.084.33.33 0 00-.196.577c.945.852 2.143 1.1 3.312.962l.561.678a.333.333 0 10.513-.425l-.325-.392c.483-.124.95-.307 1.381-.536a.333.333 0 00.137-.451.333.333 0 00-.451-.138l-.14.07.105-.549a.333.333 0 00-.317-.395zm-7.306.34c-.468-.019-.403.757.054.662.395-.06.347-.665-.054-.662zm2.71 1.834c-.468-.02-.403.756.054.66.396-.06.347-.664-.054-.66zm-5.392.801c-.426.003-.854.06-1.276.186a.332.332 0 10.192.636c.943-.283 1.98-.15 2.953.159a.333.333 0 00.201-.635c-.656-.209-1.36-.35-2.07-.346zm3.349 1.008a.333.333 0 00-.177.607c.727.507 1.505 1.157 2.516 1.367a.332.332 0 10.133-.65c-.802-.167-1.511-.737-2.269-1.265a.332.332 0 00-.203-.059z"
          baselineShift="baseline"
          clipRule="nonzero"
          color="#000"
          colorInterpolation="sRGB"
          colorInterpolationFilters="linearRGB"
          colorRendering="auto"
          direction="ltr"
          display="inline"
          dominantBaseline="auto"
          enableBackground="accumulate"
          fontFamily="sans-serif"
          fontSize="medium"
          fontStretch="normal"
          fontStyle="normal"
          fontVariant="normal"
          fontWeight="normal"
          imageRendering="auto"
          letterSpacing="normal"
          opacity="1"
          overflow="visible"
          shapeRendering="auto"
          stopColor="#000"
          stopOpacity="1"
          textAnchor="start"
          textDecoration="none"
          textRendering="auto"
          vectorEffect="none"
          visibility="visible"
          wordSpacing="normal"
          writingMode="lr-tb"
        ></path>
      </g>
    </svg>