<?xml version="1.0" encoding="UTF-8" standalone="no"?>
<svg

   inkscape:version="1.1.1 (1:1.1+202109281949+c3084ef5ed)"
   id="svg831"
   version="1.1"
   viewBox="0 0 22.577778 22.577778"
   height="64pt"
   width="64pt"
   inkscape:export-filename="/media/taufikramadhan/Data/Tr Design Studio/Project Design/TR Creative Design/Icon Design/Project Hiring/Icon Icons/010 - Food/Send/1 - Line/7 - Sushi.png"
   inkscape:export-xdpi="576"
   inkscape:export-ydpi="576"
   xmlns:inkscape="http://www.inkscape.org/namespaces/inkscape"
   xmlns:sodipodi="http://sodipodi.sourceforge.net/DTD/sodipodi-0.dtd"
   xmlns="http://www.w3.org/2000/svg"
   xmlns:svg="http://www.w3.org/2000/svg"
   xmlns:rdf="http://www.w3.org/1999/02/22-rdf-syntax-ns#"
   xmlns:cc="http://creativecommons.org/ns#"
   xmlns:dc="http://purl.org/dc/elements/1.1/">
  <defs
     id="defs825">
    <pattern
       y="0"
       x="0"
       height="6"
       width="6"
       patternUnits="userSpaceOnUse"
       id="EMFhbasepattern" />
    <pattern
       y="0"
       x="0"
       height="6"
       width="6"
       patternUnits="userSpaceOnUse"
       id="EMFhbasepattern-9" />
    <pattern
       y="0"
       x="0"
       height="6"
       width="6"
       patternUnits="userSpaceOnUse"
       id="EMFhbasepattern-0" />
    <pattern
       y="0"
       x="0"
       height="6"
       width="6"
       patternUnits="userSpaceOnUse"
       id="EMFhbasepattern-7" />
    <pattern
       y="0"
       x="0"
       height="6"
       width="6"
       patternUnits="userSpaceOnUse"
       id="EMFhbasepattern-2" />
    <pattern
       y="0"
       x="0"
       height="6"
       width="6"
       patternUnits="userSpaceOnUse"
       id="EMFhbasepattern-98" />
    <pattern
       y="0"
       x="0"
       height="6"
       width="6"
       patternUnits="userSpaceOnUse"
       id="EMFhbasepattern-6" />
    <pattern
       y="0"
       x="0"
       height="6"
       width="6"
       patternUnits="userSpaceOnUse"
       id="EMFhbasepattern-01" />
    <pattern
       y="0"
       x="0"
       height="6"
       width="6"
       patternUnits="userSpaceOnUse"
       id="EMFhbasepattern-07" />
    <pattern
       y="0"
       x="0"
       height="6"
       width="6"
       patternUnits="userSpaceOnUse"
       id="EMFhbasepattern-8" />
    <pattern
       y="0"
       x="0"
       height="6"
       width="6"
       patternUnits="userSpaceOnUse"
       id="EMFhbasepattern-4" />
    <pattern
       y="0"
       x="0"
       height="6"
       width="6"
       patternUnits="userSpaceOnUse"
       id="EMFhbasepattern-40" />
    <pattern
       y="0"
       x="0"
       height="6"
       width="6"
       patternUnits="userSpaceOnUse"
       id="EMFhbasepattern-08" />
    <pattern
       y="0"
       x="0"
       height="6"
       width="6"
       patternUnits="userSpaceOnUse"
       id="EMFhbasepattern-04" />
    <pattern
       y="0"
       x="0"
       height="6"
       width="6"
       patternUnits="userSpaceOnUse"
       id="EMFhbasepattern-014" />
    <pattern
       y="0"
       x="0"
       height="6"
       width="6"
       patternUnits="userSpaceOnUse"
       id="EMFhbasepattern-27" />
    <pattern
       y="0"
       x="0"
       height="6"
       width="6"
       patternUnits="userSpaceOnUse"
       id="EMFhbasepattern-09" />
    <pattern
       y="0"
       x="0"
       height="6"
       width="6"
       patternUnits="userSpaceOnUse"
       id="EMFhbasepattern-5" />
    <pattern
       y="0"
       x="0"
       height="6"
       width="6"
       patternUnits="userSpaceOnUse"
       id="EMFhbasepattern-018" />
  </defs>
  <sodipodi:namedview
     inkscape:document-rotation="0"
     inkscape:snap-global="true"
     inkscape:snap-nodes="false"
     inkscape:bbox-nodes="true"
     inkscape:snap-bbox="true"
     showguides="true"
     inkscape:snap-midpoints="true"
     inkscape:snap-smooth-nodes="true"
     inkscape:snap-intersection-paths="true"
     inkscape:object-paths="true"
     inkscape:showpageshadow="false"
     inkscape:pagecheckerboard="true"
     inkscape:window-maximized="1"
     inkscape:window-y="31"
     inkscape:window-x="0"
     inkscape:window-height="705"
     inkscape:window-width="1366"
     units="pt"
     showgrid="false"
     inkscape:current-layer="layer1"
     inkscape:document-units="pt"
     inkscape:cy="42.525177"
     inkscape:cx="46.892628"
     inkscape:zoom="2.175182"
     inkscape:pageshadow="2"
     inkscape:pageopacity="0.0"
     borderopacity="1.0"
     bordercolor="#666666"
     pagecolor="#ffffff"
     id="base">
    <inkscape:grid
       id="grid1378"
       type="xygrid" />
    <sodipodi:guide
       inkscape:locked="false"
       id="guide1380"
       orientation="78.000048,0"
       position="0.97013831,21.607643" />
    <sodipodi:guide
       inkscape:locked="false"
       id="guide1382"
       orientation="0,78.000005"
       position="0.97013831,0.97013129" />
    <sodipodi:guide
       inkscape:locked="false"
       id="guide1384"
       orientation="-78.000048,0"
       position="21.607639,0.97013129" />
    <sodipodi:guide
       inkscape:locked="false"
       id="guide1386"
       orientation="0,-78.000005"
       position="21.607639,21.607643" />
  </sodipodi:namedview>
  <metadata
     id="metadata828">
    <rdf:RDF>
      <cc:Work
         rdf:about="">
        <dc:format>image/svg+xml</dc:format>
        <dc:type
           rdf:resource="http://purl.org/dc/dcmitype/StillImage" />
      </cc:Work>
    </rdf:RDF>
  </metadata>
  <g
     transform="translate(0,-274.42223)"
     id="layer1"
     inkscape:groupmode="layer"
     inkscape:label="Icon">
    <path
       id="path20371"
       style="color:#000000;display:inline;fill:#000000;stroke-width:1.25806;stroke-linecap:round;stroke-linejoin:round;-inkscape-stroke:none;paint-order:markers fill stroke"
       d="m 3.3021293,277.72143 c -1.2850872,0 -2.33199098,1.04691 -2.33199098,2.33199 v 11.31539 c 0,1.28509 1.04690378,2.33199 2.33199098,2.33199 H 19.278251 c 1.285084,0 2.329388,-1.0469 2.329388,-2.33199 v -11.31539 c 0,-1.28508 -1.044304,-2.33199 -2.329388,-2.33199 z m 0,0.66638 H 19.278251 c 0.927788,0 1.663662,0.73782 1.663662,1.66561 v 11.31539 c 0,0.9278 -0.735874,1.66562 -1.663662,1.66562 H 3.3021293 c -0.9277922,0 -1.6662653,-0.73782 -1.6662653,-1.66562 v -11.31539 c 0,-0.92779 0.7384731,-1.66561 1.6662653,-1.66561 z m 12.0318257,0.58705 c -0.448435,0.003 -2.318287,0.0323 -3.532767,0.33678 -0.178448,0.0442 -0.287307,0.22462 -0.243146,0.40307 0.04413,0.17941 0.225933,0.28855 0.405024,0.24314 0.286263,-0.0718 0.631441,-0.12734 0.99079,-0.17033 v 2.10836 c -0.07957,0.0101 -0.159056,0.0195 -0.238596,0.0299 -0.182739,0.0237 -0.311543,0.19115 -0.287354,0.37382 0.0236,0.18244 0.190743,0.31114 0.373169,0.28735 0.874584,-0.11486 1.739791,-0.19052 2.616745,-0.19179 0,0 0.661591,0.0279 1.467326,0.0981 0.72436,0.0632 1.572445,0.16397 2.1155,0.29256 0.02287,0.0981 0.04309,0.23784 0.0221,0.38617 -0.03202,0.22636 -0.120434,0.47061 -0.531152,0.66768 -0.109313,-0.3062 -0.447002,-0.53414 -0.754188,-0.58967 -0.181923,-0.0288 -0.352658,0.0956 -0.380971,0.27759 -0.0288,0.18214 0.09599,0.35299 0.278252,0.38098 0.163044,0.0457 0.244013,0.18306 0.281504,0.31141 -0.222254,0.33527 -0.573919,0.39029 -0.913423,0.42845 -0.189379,0.003 -0.370098,-0.0209 -0.510349,-0.0468 0.07834,-0.16939 0.122221,-0.35746 0.122221,-0.5552 -6.66e-4,-0.18282 -0.14874,-0.33086 -0.331561,-0.33156 -0.183837,-6.7e-4 -0.333448,0.14772 -0.334164,0.33156 2e-6,0.37093 -0.292846,0.66479 -0.663777,0.66572 -0.370925,10e-4 -0.663858,-0.29026 -0.665725,-0.66118 -6.65e-4,-0.18486 -0.151915,-0.33372 -0.336763,-0.33156 -0.18282,0.003 -0.329689,0.15134 -0.328963,0.33417 9.99e-4,0.20894 0.05063,0.40703 0.138478,0.58316 -0.0806,0.009 -0.166404,0.0127 -0.254197,0.0113 -0.19798,-0.003 -0.396846,-0.0372 -0.555205,-0.1131 -0.137796,-0.0661 -0.248486,-0.15572 -0.334165,-0.31141 0.006,-0.0343 0.01695,-0.0795 0.03706,-0.12612 0.04145,-0.0961 0.07381,-0.16249 0.243146,-0.18919 0.182003,-0.0283 0.30641,-0.19905 0.277601,-0.38096 -0.02833,-0.18201 -0.199049,-0.30642 -0.380971,-0.27761 -0.400398,0.0632 -0.650505,0.35097 -0.751542,0.58512 -0.101035,0.23416 -0.09882,0.44988 -0.09882,0.44988 0.07527,0.36723 0.425901,0.70424 0.720339,0.84972 0.278733,0.13352 0.571992,0.17433 0.835406,0.17749 0.33926,0.004 0.643168,-0.0555 0.817205,-0.0981 0.190437,0.10467 0.408399,0.16442 0.63972,0.16383 0.263547,-3.3e-4 0.509439,-0.0788 0.716437,-0.21325 l 0.01561,0.008 c 0,0 0.453769,0.14605 0.99079,0.13977 0.615513,-0.0268 1.183803,-0.2548 1.479679,-0.75348 0.782234,-0.28288 1.125492,-0.8297 1.191023,-1.2931 0.0215,-0.15206 0.01854,-0.29489 0.0045,-0.41998 0.07866,-0.0209 0.15398,-0.0537 0.223641,-0.10077 0.215519,-0.14544 0.332214,-0.41161 0.332214,-0.68328 -9.98e-4,-0.098 -0.04535,-0.1905 -0.120925,-0.2529 l -0.778849,-0.65598 0.636471,-0.14301 c 0.153149,-0.0327 0.262768,-0.1678 0.2633,-0.32442 0,-0.26881 -0.08813,-0.52898 -0.231446,-0.75674 -0.143307,-0.22776 -0.346799,-0.42944 -0.624118,-0.52335 -9.98e-4,0 -0.0016,0 -0.0026,0 -1.381727,-0.36131 -2.645705,-0.42313 -4.049517,-0.42976 z m -8.5309134,0.16969 c -0.4459696,0 -0.8294777,0.29155 -0.9673828,0.69303 -0.5195691,0.0181 -1.670386,0.0956 -2.6420994,0.42454 -0.2773348,0.0939 -0.4808072,0.29558 -0.624118,0.52334 -0.1433108,0.22777 -0.2307938,0.48858 -0.2307938,0.75739 v 1.37566 c 0,0.27168 0.1160426,0.53785 0.3315614,0.68329 0.069233,0.0467 0.1442229,0.0793 0.2223424,0.10014 -0.014313,0.12543 -0.017608,0.26856 0.0039,0.42062 0.065574,0.46368 0.4091184,1.00866 1.1923249,1.29115 0.1571945,0.27353 0.3864007,0.46656 0.6306188,0.58121 0.5193993,0.21773 1.0139504,0.18408 1.542094,0.10731 0.1177335,0.1506 0.3001791,0.24899 0.5025431,0.24899 H 7.530529 c 0.202364,0 0.3848095,-0.0984 0.5025431,-0.24899 0.5240927,0.0893 1.0929022,0.0976 1.542094,-0.10731 0.2443048,-0.11474 0.4740699,-0.30817 0.6312679,-0.58186 0.781372,-0.2828 1.126188,-0.8274 1.191676,-1.2905 0.0215,-0.15206 0.01824,-0.29521 0.0039,-0.42062 0.07812,-0.021 0.15311,-0.0533 0.222339,-0.10014 0.215522,-0.14544 0.331565,-0.41161 0.331565,-0.68329 v -1.3763 c 0,-0.26881 -0.08749,-0.52898 -0.230793,-0.75675 -0.143312,-0.22776 -0.346784,-0.42944 -0.624119,-0.52334 -0.971714,-0.32892 -2.1225305,-0.40641 -2.6420996,-0.42454 -0.1379051,-0.40148 -0.5214131,-0.69303 -0.9673828,-0.69303 z M 16.94886,279.6978 v 2.13305 l -1.331443,-0.093 -8e-6,-2.09468 z m -1.997827,-0.0468 v 2.08625 c -0.447175,0.013 -0.890275,0.0431 -1.331451,0.0858 v -2.1012 c 0.509037,-0.0409 0.991211,-0.0608 1.331451,-0.0708 z m 2.663553,0.10203 c 0.592259,0.0608 1.179114,0.15246 1.558345,0.28085 0.08229,0.0279 0.190993,0.11889 0.272401,0.24835 0.03122,0.0496 0.02899,0.10027 0.0494,0.15473 l -0.951133,0.20869 c -0.270527,0.058 -0.356406,0.40146 -0.144975,0.5799 l 1.140315,0.96089 c -0.06905,0.0411 -0.132839,0.0259 -0.184699,0.005 -0.465642,-0.13388 -1.106363,-0.22778 -1.739728,-0.29645 z m -10.8115444,0.0572 H 7.491522 c 0.2028034,0 0.3562665,0.15087 0.3562665,0.35367 v 2.75457 c 0,0.2028 -0.1534631,0.35627 -0.3562665,0.35627 H 6.8030416 c -0.2028032,0 -0.3562664,-0.15347 -0.3562664,-0.35627 v -2.75457 c 0,-0.2028 0.1534632,-0.35367 0.3562664,-0.35367 z m -1.0219922,2.80269 c -0.5351871,0.0502 -1.6637122,0.17862 -2.5575856,0.43558 -0.1136662,0.0327 -0.1640515,0.0101 -0.1794331,0 -0.015379,-0.0101 -0.039657,-0.0214 -0.039657,-0.13003 v -0.67093 c 0.2085352,-0.0522 0.4301653,-0.0995 0.6514226,-0.13977 0.1802353,-0.033 0.2999662,-0.20578 0.2678515,-0.38618 -0.03292,-0.18137 -0.2068776,-0.30147 -0.3881248,-0.26785 -0.1773261,0.0323 -0.3561201,0.0681 -0.5311493,0.10794 -6.658e-4,-0.16143 0.069449,-0.31329 0.1280756,-0.42191 0.081408,-0.12938 0.1927309,-0.22051 0.2750013,-0.24836 0.8127448,-0.27513 1.8506813,-0.35749 2.373599,-0.38226 z m 2.732465,-2.1038 c 0.5229177,0.0248 1.5608546,0.10732 2.3735986,0.38227 0.08226,0.0278 0.193593,0.11901 0.275002,0.24835 0.09015,0.13173 0.116861,0.28447 0.128075,0.42192 -0.176087,-0.04 -0.355358,-0.0756 -0.5331,-0.10794 -0.180391,-0.0321 -0.353214,0.0876 -0.386174,0.26785 -0.03212,0.18039 0.08762,0.35321 0.267852,0.38618 0.221257,0.0402 0.442887,0.0874 0.651422,0.13977 v 0.67092 c 0,0.10857 -0.02427,0.11964 -0.03966,0.13004 -0.01538,0.0101 -0.06577,0.0327 -0.179433,0 -0.893867,-0.257 -2.0223925,-0.38541 -2.5575861,-0.43558 z m -0.065661,2.76691 c 0.483257,0.0471 1.4777749,0.16153 2.2676286,0.36538 0.02307,0.0983 0.04256,0.23886 0.02144,0.38813 -0.172899,0.38279 -0.254101,0.52842 -0.530563,0.66051 -0.101034,-0.23415 -0.3537471,-0.51938 -0.7541445,-0.58251 -0.1809942,-0.0272 -0.3500187,0.0967 -0.3783687,0.2776 -0.028893,0.18106 0.094054,0.35139 0.2750013,0.38098 0.1289578,0.0332 0.208998,0.15302 0.2821513,0.31205 -0.085129,0.15583 -0.1960795,0.2451 -0.3387114,0.31207 -0.3802824,0.15263 -0.7355138,0.11259 -1.1227632,0.0591 v -1.76964 c 0.122543,-0.10957 0.2191437,-0.24782 0.2782534,-0.40372 z m -2.601144,6.7e-4 c 0.05913,0.15567 0.1558598,0.2937 0.2782535,0.40309 v 1.76963 c -0.3948122,0.0915 -0.7605053,0.043 -1.1227634,-0.0591 -0.1418395,-0.0666 -0.2539377,-0.15522 -0.3393637,-0.30946 0.00603,-0.0342 0.01711,-0.0793 0.037058,-0.12543 0.041455,-0.0961 0.076409,-0.16249 0.2457459,-0.18919 0.1809477,-0.0296 0.3039039,-0.19992 0.2750015,-0.38098 -0.028327,-0.1817 -0.1986294,-0.30601 -0.3803192,-0.27759 -0.4003976,0.0632 -0.6511565,0.34836 -0.7521937,0.58251 -9.986e-4,0.003 -0.00166,0.004 -0.00267,0.006 -0.4084993,-0.19686 -0.4959557,-0.44114 -0.5279006,-0.66704 -0.021104,-0.14926 -0.00166,-0.28922 0.021436,-0.38747 0.7559016,-0.15111 1.5118067,-0.28735 2.2677085,-0.36473 z m 1.657158,0.66378 v 1.74492 h -0.713185 l 6.7e-6,-1.74492 z m -4.2095405,3.10109 c -0.5473265,0.0127 -0.9927371,0.46405 -0.9927371,1.00769 0,0.54364 0.4525505,0.9773 0.9901375,0.99014 9.985e-4,0 14.3157687,0.33416 14.3157687,0.33416 0.392165,0.009 0.747856,-0.095 0.99274,-0.34131 0.244884,-0.2463 0.34652,-0.59792 0.346513,-0.98299 7e-6,-0.39164 -0.101651,-0.74619 -0.346513,-0.99533 -0.229559,-0.2336 -0.556823,-0.33976 -0.919926,-0.34457 z m 14.3280601,0.33414 c 0.273564,-0.006 0.415194,0.0555 0.503196,0.14498 0.088,0.0896 0.155384,0.24658 0.155377,0.52855 7e-6,0.27278 -0.06741,0.42512 -0.155377,0.5136 -0.08798,0.0884 -0.229635,0.15134 -0.503196,0.14498 L 3.3092825,288.3737 c -0.1997277,-0.005 -0.3413143,-0.14595 -0.3413143,-0.32442 0,-0.17846 0.1513062,-0.33755 0.3413143,-0.34196 z m -12.7229052,2.3216 c -0.3631002,0.005 -0.6897153,0.11096 -0.9192742,0.34456 -0.2448606,0.24914 -0.3465203,0.60371 -0.3465136,0.99534 -1.01e-5,0.38507 0.1016327,0.73604 0.3465136,0.98234 0.2448839,0.24629 0.6005746,0.35108 0.992737,0.34196 l 14.3124574,-0.33416 c 0.537589,-0.0128 0.990786,-0.44649 0.990786,-0.99014 0,-0.54363 -0.443457,-0.99495 -0.990786,-1.00768 z m 0.05851,0.66637 14.3131052,0.33156 c 0.190006,0.005 0.341316,0.1635 0.341316,0.34197 0,0.17847 -0.141588,0.31964 -0.341316,0.32441 l -14.3131047,0.33416 c -0.27356,0.006 -0.4184687,-0.0565 -0.5064442,-0.14498 -0.087979,-0.0884 -0.152135,-0.24082 -0.1521285,-0.51359 -6.5e-6,-0.28197 0.066733,-0.43901 0.1547281,-0.52855 0.088003,-0.0896 0.2302812,-0.15133 0.5038441,-0.14498 z"
       sodipodi:nodetypes="ssssssssssssssssssccccccccccscsccccccccscccscccscccccsccsccccccscccccccscccsccsssscscccsscccsccsssccssccccccccccccccccccccsssssssssccsscccccccccccccccccsccccscccccccccccscccccccccccsccccccccsscsssccccscccscccsssccsccccscccscc" />
  </g>
</svg>
